<svg xmlns="http://www.w3.org/2000/svg" id="canvas" viewBox="287.018 368.642 1427.370 126.610"><path d="M 305.21,459.74 C 306.25 460.26, 307.11 460.08, 308.88 459.72 C 310.66 459.37, 311.81 459.12, 314.09 457.97 C 316.36 456.82, 317.86 455.82, 320.26 453.97 C 322.67 452.12, 323.91 450.90, 326.12 448.74 C 328.33 446.57, 329.48 445.48, 331.31 443.16 C 333.15 440.84, 334.03 439.59, 335.29 437.12 C 336.55 434.66, 337.12 433.39, 337.61 430.86 C 338.11 428.32, 338.23 426.85, 337.75 424.43 C 337.27 422.02, 336.71 420.73, 335.22 418.77 C 333.72 416.82, 332.64 415.87, 330.27 414.66 C 327.91 413.45, 326.36 412.90, 323.39 412.73 C 320.41 412.55, 318.56 412.78, 315.39 413.78 C 312.22 414.79, 310.54 415.71, 307.54 417.76 C 304.54 419.82, 302.98 421.16, 300.41 424.06 C 297.84 426.95, 296.55 428.72, 294.68 432.24 C 292.80 435.76, 291.94 437.72, 291.04 441.63 C 290.14 445.55, 289.79 447.77, 290.17 451.83 C 290.55 455.89, 291.05 458.15, 292.92 461.92 C 294.79 465.69, 296.27 467.55, 299.54 470.69 C 302.80 473.84, 304.85 475.32, 309.25 477.66 C 313.64 479.99, 316.75 480.94, 321.50 482.35 C 326.24 483.76, 329.02 484.27, 332.98 484.70 C 336.94 485.12, 339.58 485.08, 341.29 484.48 C 343.00 483.88, 343.06 482.61, 341.54 481.72 C 340.03 480.83, 337.46 480.82, 333.72 480.03 C 329.98 479.23, 327.31 479.05, 322.85 477.75 C 318.39 476.45, 315.42 475.63, 311.43 473.53 C 307.45 471.42, 305.70 470.00, 302.93 467.23 C 300.16 464.45, 299.06 462.84, 297.59 459.67 C 296.11 456.50, 295.78 454.74, 295.55 451.39 C 295.32 448.05, 295.61 446.22, 296.45 442.94 C 297.29 439.67, 298.05 437.97, 299.74 435.03 C 301.43 432.09, 302.62 430.55, 304.89 428.22 C 307.17 425.90, 308.60 424.86, 311.12 423.42 C 313.64 421.99, 315.11 421.66, 317.51 421.04 C 319.91 420.43, 321.15 420.34, 323.12 420.33 C 325.10 420.33, 325.98 420.54, 327.40 421.03 C 328.81 421.53, 329.40 421.91, 330.19 422.81 C 330.99 423.71, 331.22 424.22, 331.38 425.53 C 331.55 426.85, 331.46 427.73, 331.01 429.37 C 330.57 431.02, 330.22 431.96, 329.15 433.77 C 328.07 435.58, 327.28 436.59, 325.64 438.44 C 324.00 440.29, 323.02 441.30, 320.94 443.02 C 318.86 444.73, 317.52 445.51, 315.26 447.02 C 313.00 448.54, 311.57 449.21, 309.64 450.59 C 307.72 451.97, 306.82 452.62, 305.63 453.92 C 304.45 455.23, 303.79 455.95, 303.70 457.11 C 303.62 458.27, 304.17 459.22, 305.21 459.74" style="stroke: black; fill: black;"/><path d="M 401.90,437.74 C 402.37 436.60, 402.17 435.50, 401.56 433.86 C 400.94 432.22, 400.38 431.15, 398.81 429.51 C 397.25 427.87, 396.01 426.82, 393.71 425.67 C 391.42 424.51, 390.01 424.14, 387.33 423.73 C 384.65 423.32, 383.21 423.22, 380.32 423.61 C 377.44 424.01, 375.76 424.34, 372.92 425.73 C 370.08 427.12, 368.56 428.18, 366.12 430.55 C 363.67 432.93, 362.47 434.45, 360.69 437.60 C 358.91 440.75, 358.09 442.68, 357.22 446.32 C 356.36 449.95, 356.13 452.07, 356.36 455.77 C 356.60 459.48, 357.05 461.51, 358.40 464.83 C 359.75 468.15, 360.78 469.87, 363.12 472.39 C 365.46 474.91, 367.04 476.09, 370.12 477.42 C 373.19 478.76, 375.12 479.16, 378.51 479.08 C 381.90 479.00, 383.80 478.51, 387.06 477.02 C 390.33 475.52, 391.98 474.35, 394.82 471.60 C 397.65 468.85, 398.94 467.08, 401.23 463.26 C 403.53 459.44, 404.59 457.13, 406.28 452.51 C 407.97 447.89, 408.67 445.27, 409.68 440.15 C 410.69 435.04, 411.02 432.21, 411.33 426.93 C 411.64 421.66, 411.52 418.84, 411.23 413.77 C 410.95 408.70, 410.59 406.13, 409.90 401.58 C 409.20 397.03, 408.62 394.82, 407.77 391.00 C 406.93 387.19, 406.73 385.31, 405.68 382.52 C 404.62 379.73, 403.91 378.50, 402.50 377.06 C 401.08 375.62, 400.12 375.22, 398.61 375.31 C 397.11 375.41, 395.98 375.87, 394.99 377.55 C 393.99 379.23, 393.41 380.57, 393.64 383.72 C 393.88 386.87, 394.98 388.91, 396.16 393.31 C 397.34 397.70, 398.03 400.38, 399.53 405.69 C 401.03 411.01, 401.83 414.06, 403.66 419.87 C 405.50 425.68, 406.56 428.91, 408.69 434.74 C 410.82 440.57, 411.95 443.61, 414.32 449.00 C 416.68 454.40, 417.94 457.13, 420.50 461.71 C 423.07 466.29, 424.44 468.43, 427.14 471.90 C 429.85 475.36, 431.14 476.92, 434.02 479.03 C 436.90 481.13, 438.51 481.93, 441.53 482.41 C 444.56 482.88, 446.32 482.60, 449.15 481.41 C 451.98 480.22, 453.53 479.08, 455.70 476.43 C 457.87 473.79, 458.60 471.81, 460.02 468.19 C 461.44 464.57, 461.96 462.42, 462.80 458.34 C 463.65 454.27, 463.90 451.91, 464.25 447.82 C 464.59 443.72, 464.58 441.50, 464.53 437.86 C 464.48 434.22, 464.61 432.33, 464.00 429.64 C 463.39 426.94, 462.73 425.67, 461.48 424.40 C 460.24 423.12, 459.12 422.83, 457.79 423.28 C 456.47 423.73, 455.38 424.59, 454.88 426.62 C 454.37 428.66, 454.36 430.36, 455.24 433.45 C 456.13 436.55, 457.44 438.44, 459.29 442.11 C 461.13 445.78, 462.24 447.96, 464.47 451.81 C 466.70 455.65, 467.98 457.77, 470.43 461.35 C 472.88 464.92, 474.23 466.70, 476.74 469.70 C 479.25 472.69, 480.44 474.29, 482.97 476.32 C 485.51 478.34, 487.10 479.05, 489.43 479.83 C 491.75 480.61, 492.98 480.46, 494.59 480.21 C 496.19 479.96, 496.97 479.30, 497.47 478.56 C 497.97 477.81, 497.60 477.04, 497.09 476.48 C 496.58 475.92, 495.98 476.20, 494.93 475.74 C 493.87 475.29, 493.43 475.08, 491.82 474.19 C 490.20 473.30, 489.05 472.91, 486.86 471.29 C 484.66 469.66, 483.27 468.64, 480.84 466.06 C 478.41 463.48, 477.03 461.78, 474.72 458.41 C 472.40 455.04, 471.15 452.97, 469.27 449.21 C 467.39 445.46, 466.49 443.24, 465.31 439.62 C 464.14 435.99, 464.22 433.84, 463.39 431.08 C 462.56 428.31, 462.14 427.14, 461.17 425.77 C 460.20 424.41, 459.37 424.20, 458.55 424.26 C 457.73 424.32, 457.34 424.76, 457.08 426.07 C 456.82 427.38, 456.96 428.40, 457.25 430.82 C 457.53 433.24, 458.22 434.83, 458.50 438.15 C 458.78 441.46, 458.91 443.60, 458.65 447.39 C 458.39 451.17, 458.08 453.42, 457.20 457.09 C 456.32 460.77, 455.62 462.75, 454.25 465.77 C 452.89 468.80, 451.93 470.18, 450.39 472.22 C 448.84 474.26, 448.14 475.04, 446.54 475.97 C 444.94 476.90, 444.26 477.15, 442.37 476.88 C 440.48 476.62, 439.45 476.21, 437.10 474.64 C 434.74 473.07, 433.24 472.01, 430.60 469.03 C 427.95 466.05, 426.48 464.05, 423.88 459.75 C 421.28 455.45, 419.98 452.78, 417.61 447.54 C 415.24 442.29, 414.10 439.28, 412.04 433.53 C 409.97 427.77, 408.94 424.56, 407.30 418.78 C 405.66 413.00, 404.92 409.95, 403.83 404.65 C 402.75 399.34, 402.33 396.58, 401.88 392.24 C 401.43 387.89, 401.94 385.74, 401.57 382.92 C 401.21 380.10, 400.72 379.24, 400.04 378.13 C 399.37 377.01, 398.63 377.03, 398.20 377.35 C 397.77 377.66, 397.61 378.22, 397.90 379.71 C 398.18 381.21, 398.64 382.31, 399.62 384.84 C 400.60 387.37, 401.63 388.87, 402.80 392.37 C 403.96 395.87, 404.61 398.02, 405.45 402.35 C 406.30 406.68, 406.68 409.17, 407.03 414.04 C 407.37 418.90, 407.50 421.63, 407.18 426.68 C 406.87 431.73, 406.51 434.45, 405.46 439.28 C 404.41 444.11, 403.65 446.59, 401.93 450.83 C 400.21 455.08, 399.07 457.19, 396.86 460.49 C 394.65 463.79, 393.35 465.20, 390.89 467.34 C 388.42 469.47, 387.02 470.15, 384.52 471.15 C 382.03 472.15, 380.75 472.33, 378.40 472.34 C 376.06 472.35, 374.90 472.10, 372.80 471.20 C 370.70 470.31, 369.62 469.62, 367.91 467.86 C 366.21 466.10, 365.35 464.89, 364.30 462.39 C 363.24 459.89, 362.82 458.29, 362.64 455.38 C 362.46 452.47, 362.64 450.73, 363.40 447.85 C 364.15 444.97, 364.89 443.39, 366.40 440.98 C 367.91 438.57, 368.98 437.48, 370.94 435.80 C 372.91 434.13, 374.11 433.57, 376.20 432.60 C 378.30 431.63, 379.44 431.27, 381.41 430.95 C 383.39 430.62, 384.39 430.64, 386.08 430.98 C 387.76 431.32, 388.44 431.76, 389.84 432.65 C 391.24 433.55, 391.83 434.37, 393.06 435.45 C 394.29 436.52, 394.77 437.21, 396.00 438.03 C 397.23 438.84, 398.02 439.58, 399.20 439.52 C 400.38 439.46, 401.43 438.87, 401.90 437.74" style="stroke: black; fill: black;"/><path d="M 458.66,390.90 C 459.15 391.47, 459.63 391.22, 459.46 390.49 C 459.28 389.75, 458.28 387.80, 457.78 387.22 C 457.29 386.65, 456.81 386.90, 456.98 387.63 C 457.16 388.37, 458.16 390.33, 458.66 390.90" style="stroke: black; fill: black;"/><path d="M 502.95,373.07 C 502.23 374.05, 501.96 375.02, 502.12 377.27 C 502.29 379.51, 502.75 380.94, 503.77 384.30 C 504.78 387.67, 505.76 389.75, 507.19 394.08 C 508.61 398.40, 509.36 400.91, 510.89 405.93 C 512.42 410.94, 513.23 413.76, 514.84 419.15 C 516.45 424.55, 517.30 427.48, 518.95 432.90 C 520.60 438.33, 521.47 441.18, 523.09 446.28 C 524.71 451.39, 525.58 454.00, 527.06 458.44 C 528.54 462.87, 529.26 465.05, 530.50 468.47 C 531.73 471.90, 532.13 473.48, 533.25 475.57 C 534.37 477.65, 535.16 478.05, 536.08 478.91 C 536.99 479.78, 537.25 479.83, 537.84 479.90 C 538.43 479.97, 538.75 479.78, 539.04 479.27 C 539.33 478.76, 539.37 478.58, 539.29 477.37 C 539.20 476.15, 539.39 475.36, 538.60 473.18 C 537.81 471.00, 536.85 469.73, 535.36 466.49 C 533.87 463.24, 532.85 461.23, 531.15 456.94 C 529.44 452.66, 528.53 450.08, 526.83 445.05 C 525.12 440.02, 524.25 437.19, 522.61 431.79 C 520.98 426.39, 520.14 423.47, 518.65 418.06 C 517.16 412.65, 516.41 409.83, 515.16 404.75 C 513.91 399.67, 513.36 397.10, 512.40 392.66 C 511.44 388.21, 511.17 385.92, 510.36 382.52 C 509.55 379.13, 509.27 377.70, 508.34 375.67 C 507.41 373.65, 506.79 372.92, 505.71 372.40 C 504.63 371.88, 503.67 372.10, 502.95 373.07" style="stroke: black; fill: black;"/><path d="M 501.58,439.22 C 502.36 439.78, 502.69 439.67, 504.10 439.70 C 505.51 439.74, 506.30 439.89, 508.63 439.40 C 510.97 438.92, 512.37 438.08, 515.77 437.27 C 519.17 436.47, 521.42 436.01, 525.65 435.37 C 529.88 434.73, 532.39 434.49, 536.92 434.06 C 541.45 433.63, 543.97 433.41, 548.31 433.24 C 552.64 433.06, 554.85 432.99, 558.60 433.19 C 562.34 433.39, 564.14 433.63, 567.02 434.24 C 569.91 434.85, 571.09 435.25, 573.03 436.22 C 574.97 437.19, 575.60 437.63, 576.71 439.09 C 577.81 440.54, 578.00 441.40, 578.55 443.49 C 579.09 445.58, 579.07 446.91, 579.43 449.54 C 579.79 452.18, 579.99 453.81, 580.34 456.65 C 580.69 459.48, 580.75 461.08, 581.18 463.74 C 581.62 466.40, 581.87 467.88, 582.53 469.93 C 583.19 471.99, 583.68 472.82, 584.49 474.00 C 585.29 475.19, 585.76 475.62, 586.54 475.88 C 587.33 476.14, 587.88 475.90, 588.40 475.31 C 588.93 474.72, 588.94 474.23, 589.15 472.91 C 589.37 471.59, 589.54 470.75, 589.47 468.70 C 589.40 466.66, 589.11 465.28, 588.81 462.68 C 588.52 460.08, 588.35 458.61, 588.01 455.72 C 587.67 452.83, 587.70 451.15, 587.11 448.23 C 586.53 445.32, 586.22 443.76, 585.07 441.14 C 583.93 438.53, 583.25 437.25, 581.39 435.17 C 579.53 433.08, 578.45 432.06, 575.78 430.72 C 573.12 429.39, 571.48 429.04, 568.07 428.50 C 564.67 427.95, 562.75 428.03, 558.75 428.01 C 554.75 427.98, 552.54 428.14, 548.09 428.35 C 543.65 428.56, 541.13 428.79, 536.53 429.08 C 531.92 429.37, 529.43 429.54, 525.07 429.80 C 520.70 430.05, 518.40 430.06, 514.70 430.35 C 511.01 430.64, 509.18 430.49, 506.60 431.23 C 504.01 431.97, 503.06 432.92, 501.78 434.05 C 500.51 435.18, 500.27 435.87, 500.23 436.90 C 500.19 437.93, 500.81 438.66, 501.58 439.22" style="stroke: black; fill: black;"/><path d="M 571.61,397.80 C 572.24 398.19, 572.54 397.87, 572.11 397.26 C 571.68 396.65, 570.09 395.14, 569.45 394.74 C 568.82 394.34, 568.51 394.66, 568.94 395.27 C 569.38 395.89, 570.97 397.40, 571.61 397.80" style="stroke: black; fill: black;"/><path d="M 628.49,434.89 C 628.05 433.92, 627.57 433.69, 626.63 433.31 C 625.70 432.94, 625.13 432.80, 623.82 432.99 C 622.51 433.19, 621.53 433.49, 620.08 434.27 C 618.64 435.06, 617.95 435.64, 616.59 436.94 C 615.23 438.23, 614.45 438.90, 613.28 440.77 C 612.10 442.64, 611.40 443.81, 610.72 446.29 C 610.04 448.77, 609.79 450.33, 609.89 453.19 C 609.99 456.04, 610.19 457.69, 611.21 460.58 C 612.23 463.47, 612.98 465.11, 615.01 467.64 C 617.03 470.17, 618.45 471.44, 621.34 473.23 C 624.23 475.03, 626.01 475.75, 629.44 476.61 C 632.87 477.47, 634.86 477.68, 638.50 477.55 C 642.15 477.42, 644.19 477.07, 647.66 475.97 C 651.13 474.86, 652.89 473.98, 655.85 472.02 C 658.80 470.06, 660.19 468.83, 662.42 466.17 C 664.66 463.50, 665.81 461.89, 667.02 458.70 C 668.23 455.52, 668.55 453.60, 668.47 450.25 C 668.39 446.89, 667.94 445.02, 666.63 441.91 C 665.32 438.80, 664.24 437.24, 661.91 434.71 C 659.58 432.18, 657.94 431.05, 654.98 429.26 C 652.01 427.47, 650.27 426.79, 647.09 425.77 C 643.91 424.75, 642.10 424.32, 639.07 424.17 C 636.03 424.01, 634.36 424.18, 631.90 424.98 C 629.45 425.78, 628.19 426.62, 626.79 428.18 C 625.39 429.73, 625.17 431.09, 624.92 432.76 C 624.68 434.43, 624.93 435.45, 625.56 436.51 C 626.19 437.57, 627.08 438.10, 628.06 438.07 C 629.05 438.03, 629.99 437.05, 630.50 436.34 C 631.00 435.62, 630.61 435.09, 630.58 434.49 C 630.54 433.90, 630.31 433.86, 630.32 433.38 C 630.32 432.89, 629.97 432.47, 630.58 432.08 C 631.19 431.69, 631.76 431.53, 633.36 431.41 C 634.96 431.30, 636.22 431.29, 638.56 431.50 C 640.90 431.72, 642.48 431.76, 645.06 432.48 C 647.65 433.20, 649.14 433.74, 651.51 435.12 C 653.88 436.49, 655.14 437.45, 656.90 439.34 C 658.67 441.24, 659.38 442.36, 660.32 444.58 C 661.27 446.80, 661.55 448.08, 661.63 450.44 C 661.71 452.79, 661.58 454.04, 660.74 456.36 C 659.89 458.67, 659.09 459.94, 657.41 462.01 C 655.72 464.09, 654.64 465.15, 652.30 466.72 C 649.97 468.30, 648.54 469.02, 645.74 469.89 C 642.95 470.77, 641.24 471.04, 638.33 471.08 C 635.42 471.13, 633.80 470.89, 631.18 470.13 C 628.55 469.37, 627.26 468.69, 625.20 467.28 C 623.15 465.87, 622.26 464.88, 620.90 463.06 C 619.54 461.23, 619.03 460.16, 618.41 458.16 C 617.79 456.16, 617.79 455.01, 617.81 453.05 C 617.82 451.09, 618.07 450.01, 618.49 448.35 C 618.91 446.69, 619.26 445.94, 619.92 444.76 C 620.58 443.58, 621.03 443.13, 621.78 442.45 C 622.53 441.76, 622.90 441.65, 623.65 441.33 C 624.40 441.01, 624.78 441.09, 625.52 440.84 C 626.25 440.59, 626.65 440.63, 627.32 440.09 C 627.98 439.55, 628.61 439.18, 628.84 438.14 C 629.08 437.10, 628.93 435.86, 628.49 434.89" style="stroke: black; fill: black;"/><path d="M 673.45,430.71 C 672.62 431.39, 672.38 432.05, 672.12 433.65 C 671.85 435.25, 671.75 436.36, 672.11 438.72 C 672.47 441.08, 673.02 442.65, 673.92 445.44 C 674.82 448.22, 675.62 449.80, 676.61 452.65 C 677.61 455.50, 677.97 457.12, 678.91 459.69 C 679.86 462.26, 680.28 463.59, 681.33 465.51 C 682.38 467.42, 682.86 468.31, 684.17 469.26 C 685.49 470.22, 686.40 470.48, 687.91 470.28 C 689.42 470.09, 690.42 469.67, 691.70 468.30 C 692.98 466.93, 693.56 465.84, 694.31 463.46 C 695.06 461.08, 694.92 459.38, 695.46 456.39 C 695.99 453.39, 696.12 451.57, 696.97 448.48 C 697.82 445.40, 698.38 443.72, 699.70 440.97 C 701.03 438.21, 701.92 436.88, 703.59 434.71 C 705.27 432.53, 706.22 431.59, 708.05 430.09 C 709.89 428.59, 710.83 427.96, 712.75 427.21 C 714.67 426.45, 715.71 426.25, 717.65 426.30 C 719.60 426.35, 720.53 426.55, 722.46 427.44 C 724.39 428.33, 725.36 428.96, 727.31 430.75 C 729.26 432.54, 730.37 433.69, 732.22 436.38 C 734.07 439.07, 734.98 440.87, 736.57 444.20 C 738.17 447.52, 738.87 449.49, 740.20 452.98 C 741.53 456.48, 742.06 458.36, 743.24 461.69 C 744.42 465.02, 744.82 466.96, 746.11 469.63 C 747.40 472.30, 748.32 473.45, 749.71 475.03 C 751.10 476.61, 751.99 477.26, 753.04 477.52 C 754.09 477.79, 754.68 477.35, 754.95 476.35 C 755.22 475.34, 754.90 474.41, 754.39 472.50 C 753.88 470.58, 753.51 469.36, 752.40 466.76 C 751.29 464.16, 750.19 462.66, 748.82 459.50 C 747.45 456.33, 746.93 454.48, 745.55 450.93 C 744.17 447.37, 743.53 445.32, 741.92 441.72 C 740.31 438.12, 739.48 436.13, 737.51 432.94 C 735.53 429.75, 734.49 428.12, 732.05 425.75 C 729.61 423.37, 728.15 422.31, 725.29 421.07 C 722.44 419.83, 720.75 419.58, 717.76 419.54 C 714.78 419.51, 713.16 419.86, 710.35 420.90 C 707.54 421.94, 706.13 422.80, 703.71 424.76 C 701.30 426.72, 700.26 428.04, 698.28 430.70 C 696.30 433.36, 695.41 434.94, 693.83 438.06 C 692.25 441.18, 691.66 443.02, 690.38 446.28 C 689.11 449.54, 688.47 451.33, 687.47 454.35 C 686.46 457.36, 685.74 458.97, 685.37 461.35 C 685.00 463.73, 685.23 464.92, 685.60 466.25 C 685.97 467.58, 686.68 467.90, 687.24 467.99 C 687.79 468.08, 688.24 467.69, 688.36 466.69 C 688.47 465.69, 688.23 464.87, 687.80 462.99 C 687.38 461.11, 686.97 459.81, 686.23 457.28 C 685.50 454.75, 684.90 453.19, 684.13 450.33 C 683.36 447.46, 683.11 445.73, 682.40 442.97 C 681.68 440.21, 681.37 438.66, 680.57 436.53 C 679.78 434.41, 679.27 433.60, 678.40 432.34 C 677.54 431.09, 677.25 430.58, 676.26 430.26 C 675.27 429.93, 674.28 430.03, 673.45 430.71" style="stroke: black; fill: black;"/><path d="M 828.44,432.09 C 827.71 432.97, 827.64 433.83, 827.60 435.67 C 827.56 437.51, 827.59 438.73, 828.24 441.28 C 828.88 443.83, 829.77 445.40, 830.82 448.43 C 831.86 451.46, 832.51 453.25, 833.46 456.43 C 834.40 459.60, 834.76 461.36, 835.54 464.31 C 836.32 467.25, 836.55 468.82, 837.33 471.14 C 838.12 473.46, 838.43 474.57, 839.47 475.91 C 840.51 477.25, 841.23 477.70, 842.55 477.83 C 843.86 477.96, 844.91 477.72, 846.05 476.58 C 847.18 475.44, 847.81 474.38, 848.25 472.12 C 848.68 469.85, 848.31 468.28, 848.22 465.26 C 848.13 462.23, 847.73 460.39, 847.78 456.98 C 847.83 453.56, 847.99 451.49, 848.46 448.17 C 848.94 444.86, 849.35 443.21, 850.13 440.39 C 850.91 437.58, 851.51 436.21, 852.36 434.08 C 853.22 431.94, 853.57 430.98, 854.42 429.72 C 855.27 428.46, 855.72 428.10, 856.61 427.77 C 857.50 427.44, 857.84 427.53, 858.86 428.07 C 859.88 428.61, 860.43 429.10, 861.72 430.47 C 863.01 431.84, 863.78 432.75, 865.32 434.91 C 866.86 437.07, 867.91 438.39, 869.42 441.26 C 870.92 444.14, 871.62 446.00, 872.83 449.30 C 874.04 452.60, 874.57 454.59, 875.47 457.77 C 876.37 460.96, 876.45 462.71, 877.33 465.22 C 878.21 467.72, 878.66 468.89, 879.87 470.28 C 881.08 471.67, 881.93 472.11, 883.38 472.17 C 884.82 472.22, 885.82 471.80, 887.09 470.54 C 888.36 469.28, 889.03 468.22, 889.71 465.86 C 890.40 463.51, 890.20 461.78, 890.53 458.76 C 890.85 455.75, 890.76 453.93, 891.35 450.78 C 891.95 447.64, 892.45 445.93, 893.49 443.04 C 894.54 440.16, 895.31 438.70, 896.57 436.35 C 897.82 434.01, 898.49 432.98, 899.76 431.31 C 901.03 429.65, 901.76 428.93, 902.91 428.03 C 904.07 427.13, 904.54 426.83, 905.54 426.82 C 906.54 426.80, 906.90 426.98, 907.92 427.95 C 908.95 428.93, 909.32 429.74, 910.66 431.69 C 912.00 433.64, 913.02 434.83, 914.61 437.71 C 916.19 440.59, 917.04 442.51, 918.59 446.09 C 920.13 449.66, 920.78 451.80, 922.32 455.57 C 923.86 459.35, 924.56 461.44, 926.28 464.95 C 928.00 468.46, 928.91 470.28, 930.92 473.12 C 932.92 475.96, 933.91 477.28, 936.30 479.16 C 938.69 481.03, 940.08 481.74, 942.87 482.48 C 945.67 483.22, 947.31 483.38, 950.28 482.85 C 953.24 482.32, 954.87 481.63, 957.70 479.82 C 960.54 478.01, 961.92 476.58, 964.47 473.79 C 967.01 471.00, 968.25 469.27, 970.43 465.88 C 972.61 462.49, 973.75 460.54, 975.35 456.84 C 976.95 453.13, 977.57 451.05, 978.42 447.37 C 979.27 443.69, 979.62 441.78, 979.60 438.42 C 979.59 435.07, 979.33 433.36, 978.35 430.60 C 977.36 427.85, 976.47 426.51, 974.67 424.65 C 972.86 422.78, 971.65 421.98, 969.33 421.29 C 967.00 420.60, 965.48 420.51, 963.02 421.20 C 960.57 421.89, 959.05 422.66, 957.05 424.73 C 955.05 426.81, 954.02 428.39, 953.01 431.58 C 952.00 434.77, 951.91 436.87, 952.01 440.69 C 952.10 444.51, 952.32 446.67, 953.49 450.69 C 954.66 454.70, 955.60 456.95, 957.86 460.76 C 960.12 464.57, 961.60 466.53, 964.80 469.72 C 968.01 472.92, 969.99 474.42, 973.87 476.74 C 977.74 479.06, 980.01 480.05, 984.17 481.32 C 988.32 482.59, 990.60 482.97, 994.66 483.09 C 998.72 483.21, 1000.84 482.96, 1004.48 481.92 C 1008.12 480.87, 1009.93 479.99, 1012.86 477.85 C 1015.78 475.70, 1017.11 474.20, 1019.11 471.18 C 1021.10 468.16, 1021.81 466.27, 1022.82 462.76 C 1023.84 459.26, 1023.99 457.24, 1024.19 453.66 C 1024.40 450.07, 1024.25 448.08, 1023.84 444.83 C 1023.42 441.58, 1022.97 439.97, 1022.10 437.40 C 1021.24 434.82, 1020.82 433.49, 1019.52 431.94 C 1018.23 430.40, 1017.10 429.73, 1015.62 429.66 C 1014.15 429.59, 1013.07 430.19, 1012.14 431.59 C 1011.22 433.00, 1010.74 434.20, 1011.00 436.69 C 1011.25 439.17, 1012.15 440.72, 1013.43 444.01 C 1014.72 447.30, 1015.86 449.35, 1017.44 453.13 C 1019.02 456.90, 1019.85 459.13, 1021.34 462.88 C 1022.83 466.64, 1023.58 468.60, 1024.88 471.90 C 1026.17 475.20, 1026.51 476.99, 1027.81 479.38 C 1029.10 481.77, 1029.91 482.83, 1031.36 483.85 C 1032.81 484.87, 1033.78 484.91, 1035.05 484.47 C 1036.33 484.03, 1037.05 483.32, 1037.75 481.65 C 1038.45 479.98, 1038.76 478.74, 1038.55 476.11 C 1038.33 473.49, 1037.42 471.81, 1036.68 468.53 C 1035.94 465.26, 1035.36 463.27, 1034.84 459.75 C 1034.32 456.24, 1034.15 454.31, 1034.08 450.98 C 1034.00 447.64, 1034.15 445.93, 1034.47 443.07 C 1034.78 440.21, 1035.05 438.86, 1035.64 436.68 C 1036.24 434.51, 1036.61 433.59, 1037.44 432.20 C 1038.26 430.81, 1038.78 430.32, 1039.77 429.73 C 1040.76 429.15, 1041.18 429.04, 1042.37 429.27 C 1043.57 429.50, 1044.20 429.85, 1045.75 430.88 C 1047.30 431.90, 1048.25 432.60, 1050.13 434.40 C 1052.01 436.19, 1053.24 437.22, 1055.16 439.85 C 1057.09 442.49, 1058.14 444.28, 1059.77 447.57 C 1061.40 450.85, 1062.10 452.82, 1063.33 456.29 C 1064.56 459.76, 1065.04 461.74, 1065.92 464.91 C 1066.80 468.08, 1066.86 469.82, 1067.75 472.15 C 1068.63 474.48, 1069.14 475.49, 1070.35 476.58 C 1071.57 477.67, 1072.46 477.89, 1073.82 477.62 C 1075.17 477.35, 1076.09 476.75, 1077.13 475.23 C 1078.17 473.71, 1078.62 472.52, 1079.03 470.02 C 1079.45 467.51, 1079.05 465.77, 1079.21 462.72 C 1079.38 459.66, 1079.35 457.89, 1079.87 454.75 C 1080.38 451.61, 1080.81 449.88, 1081.79 447.01 C 1082.77 444.15, 1083.49 442.72, 1084.76 440.43 C 1086.04 438.14, 1086.76 437.15, 1088.16 435.57 C 1089.55 433.99, 1090.34 433.35, 1091.73 432.53 C 1093.13 431.71, 1093.78 431.46, 1095.14 431.48 C 1096.51 431.49, 1097.11 431.69, 1098.55 432.61 C 1100.00 433.53, 1100.67 434.28, 1102.37 436.09 C 1104.08 437.90, 1105.23 438.99, 1107.09 441.68 C 1108.94 444.36, 1109.89 446.16, 1111.64 449.53 C 1113.39 452.90, 1114.23 454.93, 1115.85 458.53 C 1117.48 462.14, 1118.19 464.11, 1119.78 467.55 C 1121.36 470.99, 1122.01 472.80, 1123.77 475.75 C 1125.54 478.71, 1126.41 480.20, 1128.59 482.31 C 1130.78 484.42, 1132.08 485.24, 1134.70 486.30 C 1137.31 487.35, 1138.76 487.69, 1141.65 487.58 C 1144.53 487.47, 1146.30 487.19, 1149.12 485.74 C 1151.94 484.29, 1153.27 482.93, 1155.74 480.34 C 1158.21 477.76, 1159.35 476.09, 1161.45 472.80 C 1163.56 469.51, 1164.63 467.56, 1166.27 463.89 C 1167.92 460.21, 1168.62 458.14, 1169.66 454.43 C 1170.70 450.71, 1171.10 448.78, 1171.49 445.30 C 1171.88 441.83, 1172.00 440.06, 1171.61 437.07 C 1171.22 434.09, 1170.70 432.71, 1169.56 430.36 C 1168.42 428.01, 1167.65 426.85, 1165.92 425.34 C 1164.18 423.83, 1162.99 423.22, 1160.88 422.80 C 1158.78 422.39, 1157.47 422.47, 1155.40 423.27 C 1153.32 424.08, 1152.14 424.84, 1150.52 426.83 C 1148.90 428.82, 1148.03 430.26, 1147.32 433.23 C 1146.60 436.19, 1146.62 438.11, 1146.96 441.67 C 1147.29 445.23, 1147.72 447.30, 1149.00 451.04 C 1150.28 454.78, 1151.15 456.82, 1153.35 460.37 C 1155.55 463.92, 1156.96 465.72, 1159.99 468.79 C 1163.02 471.87, 1164.80 473.40, 1168.50 475.76 C 1172.20 478.12, 1174.62 479.14, 1178.50 480.59 C 1182.37 482.03, 1184.70 482.70, 1187.87 482.97 C 1191.03 483.25, 1192.98 482.68, 1194.32 481.96 C 1195.65 481.24, 1195.61 480.30, 1194.53 479.38 C 1193.44 478.47, 1191.71 478.19, 1188.87 477.39 C 1186.04 476.58, 1183.89 476.56, 1180.36 475.36 C 1176.84 474.16, 1174.56 473.42, 1171.23 471.39 C 1167.91 469.35, 1166.35 467.95, 1163.73 465.18 C 1161.11 462.41, 1159.90 460.73, 1158.14 457.55 C 1156.38 454.37, 1155.71 452.51, 1154.91 449.27 C 1154.10 446.03, 1154.08 444.19, 1154.12 441.34 C 1154.16 438.50, 1154.65 437.15, 1155.12 435.04 C 1155.59 432.94, 1155.89 432.09, 1156.46 430.83 C 1157.04 429.57, 1157.34 429.21, 1157.97 428.75 C 1158.61 428.28, 1158.88 428.28, 1159.63 428.50 C 1160.37 428.71, 1160.88 428.93, 1161.70 429.82 C 1162.53 430.72, 1163.11 431.36, 1163.76 432.98 C 1164.42 434.60, 1164.66 435.59, 1164.97 437.95 C 1165.29 440.30, 1165.52 441.77, 1165.34 444.76 C 1165.16 447.76, 1164.94 449.57, 1164.07 452.91 C 1163.20 456.26, 1162.55 458.19, 1161.01 461.48 C 1159.47 464.77, 1158.38 466.56, 1156.37 469.37 C 1154.36 472.18, 1153.10 473.54, 1150.96 475.54 C 1148.82 477.53, 1147.65 478.22, 1145.68 479.34 C 1143.72 480.47, 1142.86 480.89, 1141.13 481.15 C 1139.40 481.41, 1138.64 481.34, 1137.04 480.65 C 1135.45 479.95, 1134.76 479.30, 1133.14 477.67 C 1131.52 476.05, 1130.60 475.03, 1128.95 472.52 C 1127.30 470.01, 1126.49 468.37, 1124.89 465.12 C 1123.29 461.87, 1122.54 459.90, 1120.95 456.27 C 1119.36 452.63, 1118.59 450.56, 1116.94 446.95 C 1115.28 443.34, 1114.50 441.41, 1112.68 438.20 C 1110.87 434.99, 1110.08 433.22, 1107.87 430.89 C 1105.66 428.56, 1104.21 427.67, 1101.65 426.55 C 1099.09 425.43, 1097.63 425.21, 1095.06 425.28 C 1092.50 425.35, 1091.17 425.76, 1088.81 426.89 C 1086.45 428.02, 1085.27 428.89, 1083.25 430.93 C 1081.23 432.96, 1080.25 434.27, 1078.70 437.06 C 1077.15 439.85, 1076.62 441.61, 1075.50 444.86 C 1074.39 448.11, 1073.98 449.96, 1073.11 453.30 C 1072.24 456.65, 1071.85 458.45, 1071.15 461.60 C 1070.46 464.76, 1069.74 466.52, 1069.65 469.09 C 1069.57 471.67, 1070.05 473.02, 1070.74 474.47 C 1071.43 475.92, 1072.32 476.30, 1073.09 476.36 C 1073.86 476.43, 1074.35 476.05, 1074.59 474.82 C 1074.84 473.58, 1074.85 472.53, 1074.32 470.17 C 1073.80 467.81, 1073.07 466.20, 1071.97 463.02 C 1070.87 459.84, 1070.19 457.87, 1068.83 454.27 C 1067.46 450.67, 1066.79 448.62, 1065.15 445.01 C 1063.52 441.40, 1062.57 439.43, 1060.64 436.23 C 1058.71 433.03, 1057.79 431.39, 1055.51 429.02 C 1053.23 426.66, 1051.82 425.61, 1049.26 424.40 C 1046.70 423.20, 1045.18 422.97, 1042.71 423.00 C 1040.24 423.04, 1038.99 423.44, 1036.90 424.56 C 1034.81 425.68, 1033.79 426.58, 1032.25 428.63 C 1030.71 430.67, 1030.05 432.02, 1029.19 434.79 C 1028.34 437.56, 1028.25 439.20, 1027.98 442.46 C 1027.72 445.73, 1027.80 447.52, 1027.88 451.12 C 1027.95 454.71, 1028.15 456.72, 1028.38 460.42 C 1028.60 464.13, 1028.79 466.21, 1029.00 469.63 C 1029.22 473.05, 1028.87 474.97, 1029.45 477.52 C 1030.03 480.06, 1030.87 481.20, 1031.92 482.36 C 1032.96 483.52, 1033.94 483.58, 1034.67 483.33 C 1035.39 483.07, 1035.66 482.50, 1035.52 481.11 C 1035.37 479.71, 1034.97 478.66, 1033.94 476.34 C 1032.91 474.03, 1031.83 472.64, 1030.37 469.54 C 1028.91 466.43, 1028.06 464.52, 1026.64 460.82 C 1025.22 457.11, 1024.41 454.88, 1023.26 451.03 C 1022.10 447.19, 1021.70 444.89, 1020.86 441.60 C 1020.02 438.32, 1019.96 436.67, 1019.06 434.63 C 1018.17 432.59, 1017.40 431.97, 1016.38 431.40 C 1015.36 430.83, 1014.48 431.09, 1013.97 431.78 C 1013.47 432.46, 1013.56 433.28, 1013.84 434.83 C 1014.12 436.38, 1014.72 437.32, 1015.36 439.52 C 1016.01 441.73, 1016.58 443.07, 1017.07 445.85 C 1017.56 448.63, 1017.85 450.37, 1017.80 453.42 C 1017.76 456.47, 1017.61 458.21, 1016.85 461.10 C 1016.08 463.99, 1015.50 465.47, 1014.00 467.88 C 1012.49 470.29, 1011.54 471.41, 1009.32 473.15 C 1007.09 474.89, 1005.78 475.65, 1002.87 476.58 C 999.96 477.52, 998.21 477.84, 994.75 477.83 C 991.30 477.81, 989.27 477.57, 985.60 476.51 C 981.92 475.45, 979.83 474.59, 976.38 472.53 C 972.93 470.48, 971.13 469.10, 968.34 466.23 C 965.54 463.36, 964.25 461.56, 962.39 458.17 C 960.53 454.77, 959.81 452.71, 959.04 449.25 C 958.27 445.78, 958.29 443.89, 958.54 440.84 C 958.80 437.79, 959.52 436.26, 960.31 433.98 C 961.10 431.69, 961.54 430.78, 962.49 429.43 C 963.45 428.08, 964.04 427.72, 965.07 427.22 C 966.09 426.73, 966.62 426.65, 967.62 426.96 C 968.62 427.28, 969.16 427.64, 970.08 428.79 C 970.99 429.94, 971.56 430.76, 972.19 432.71 C 972.81 434.66, 973.11 435.86, 973.21 438.54 C 973.30 441.23, 973.30 442.94, 972.68 446.15 C 972.07 449.35, 971.55 451.28, 970.12 454.57 C 968.69 457.87, 967.58 459.66, 965.53 462.61 C 963.48 465.57, 962.19 467.09, 959.87 469.35 C 957.54 471.60, 956.12 472.48, 953.92 473.88 C 951.71 475.28, 950.75 475.81, 948.85 476.35 C 946.94 476.89, 946.12 477.00, 944.40 476.57 C 942.68 476.14, 941.96 475.62, 940.24 474.21 C 938.53 472.81, 937.60 471.90, 935.81 469.55 C 934.02 467.19, 932.95 465.63, 931.28 462.43 C 929.61 459.22, 928.90 457.23, 927.46 453.53 C 926.03 449.82, 925.45 447.67, 924.10 443.91 C 922.75 440.16, 922.15 438.10, 920.72 434.75 C 919.29 431.39, 918.79 429.58, 916.94 427.13 C 915.09 424.69, 913.79 423.75, 911.49 422.53 C 909.19 421.32, 907.82 421.03, 905.44 421.08 C 903.07 421.12, 901.79 421.57, 899.62 422.75 C 897.44 423.93, 896.41 424.92, 894.57 426.98 C 892.73 429.04, 891.87 430.30, 890.40 433.06 C 888.93 435.81, 888.38 437.54, 887.20 440.75 C 886.03 443.96, 885.52 445.78, 884.51 449.09 C 883.51 452.40, 882.92 454.22, 882.18 457.29 C 881.43 460.36, 880.86 462.06, 880.79 464.43 C 880.71 466.80, 881.20 467.93, 881.81 469.13 C 882.43 470.33, 883.24 470.58, 883.85 470.41 C 884.45 470.24, 884.80 469.72, 884.86 468.27 C 884.92 466.82, 884.79 465.64, 884.16 463.15 C 883.53 460.67, 882.80 459.04, 881.72 455.84 C 880.65 452.64, 880.03 450.64, 878.79 447.15 C 877.55 443.66, 876.94 441.72, 875.53 438.39 C 874.13 435.07, 873.52 433.25, 871.75 430.54 C 869.97 427.82, 868.87 426.50, 866.65 424.81 C 864.42 423.12, 863.01 422.57, 860.63 422.10 C 858.26 421.64, 856.97 421.75, 854.79 422.48 C 852.61 423.20, 851.47 423.97, 849.74 425.74 C 848.01 427.52, 847.34 428.77, 846.13 431.36 C 844.93 433.96, 844.53 435.53, 843.73 438.70 C 842.92 441.87, 842.68 443.66, 842.11 447.21 C 841.53 450.75, 841.37 452.88, 840.86 456.42 C 840.35 459.97, 839.88 461.85, 839.57 464.95 C 839.26 468.05, 838.98 469.70, 839.31 471.92 C 839.65 474.13, 840.34 475.09, 841.23 476.00 C 842.12 476.92, 843.05 476.86, 843.78 476.47 C 844.51 476.08, 844.81 475.48, 844.89 474.04 C 844.97 472.59, 844.68 471.55, 844.18 469.24 C 843.67 466.92, 843.17 465.40, 842.37 462.47 C 841.57 459.54, 840.98 457.82, 840.17 454.59 C 839.36 451.35, 839.03 449.45, 838.30 446.28 C 837.57 443.12, 837.40 441.28, 836.52 438.78 C 835.63 436.27, 834.93 435.27, 833.87 433.76 C 832.82 432.26, 832.33 431.60, 831.24 431.27 C 830.16 430.93, 829.17 431.21, 828.44 432.09" style="stroke: black; fill: black;"/><path d="M 1236.73,424.83 C 1236.51 423.64, 1235.76 422.73, 1234.27 421.77 C 1232.78 420.81, 1231.60 420.38, 1229.28 420.02 C 1226.97 419.66, 1225.36 419.56, 1222.69 419.96 C 1220.01 420.36, 1218.45 420.94, 1215.92 422.03 C 1213.38 423.13, 1212.05 423.80, 1209.99 425.44 C 1207.93 427.07, 1206.81 428.04, 1205.62 430.20 C 1204.43 432.36, 1203.98 433.78, 1204.06 436.24 C 1204.14 438.70, 1204.48 440.19, 1206.01 442.51 C 1207.54 444.83, 1208.83 445.89, 1211.71 447.83 C 1214.59 449.77, 1216.59 450.43, 1220.39 452.20 C 1224.20 453.98, 1226.45 454.89, 1230.75 456.71 C 1235.04 458.53, 1237.57 459.40, 1241.87 461.30 C 1246.17 463.19, 1248.48 464.18, 1252.24 466.20 C 1256.01 468.21, 1257.88 469.44, 1260.69 471.38 C 1263.51 473.31, 1264.63 474.40, 1266.31 475.87 C 1268.00 477.35, 1268.59 477.83, 1269.11 478.75 C 1269.63 479.66, 1269.61 479.88, 1268.92 480.45 C 1268.23 481.03, 1267.53 480.96, 1265.66 481.63 C 1263.79 482.29, 1262.55 482.92, 1259.57 483.78 C 1256.59 484.64, 1254.61 485.30, 1250.76 485.92 C 1246.90 486.54, 1244.50 486.73, 1240.29 486.88 C 1236.08 487.04, 1233.66 486.99, 1229.72 486.68 C 1225.78 486.38, 1223.72 486.04, 1220.58 485.37 C 1217.43 484.70, 1216.14 484.06, 1214.01 483.34 C 1211.87 482.62, 1211.21 482.29, 1209.91 481.78 C 1208.60 481.26, 1208.27 480.71, 1207.47 480.75 C 1206.67 480.80, 1206.01 481.09, 1205.92 482.01 C 1205.82 482.94, 1205.88 483.91, 1207.02 485.36 C 1208.16 486.81, 1209.10 488.12, 1211.61 489.28 C 1214.11 490.43, 1215.98 490.59, 1219.53 491.14 C 1223.08 491.69, 1225.20 491.79, 1229.38 492.01 C 1233.55 492.23, 1235.99 492.28, 1240.41 492.24 C 1244.82 492.21, 1247.27 492.14, 1251.45 491.82 C 1255.62 491.51, 1257.80 491.43, 1261.30 490.66 C 1264.79 489.89, 1266.53 489.51, 1268.92 487.99 C 1271.30 486.48, 1272.27 485.24, 1273.24 483.08 C 1274.21 480.93, 1274.31 479.55, 1273.78 477.22 C 1273.24 474.90, 1272.58 473.56, 1270.55 471.47 C 1268.53 469.37, 1266.86 468.68, 1263.65 466.76 C 1260.43 464.84, 1258.44 463.82, 1254.47 461.86 C 1250.50 459.90, 1248.13 458.92, 1243.80 456.97 C 1239.47 455.02, 1236.97 454.09, 1232.83 452.10 C 1228.69 450.11, 1226.52 449.03, 1223.12 447.02 C 1219.71 445.00, 1218.14 443.75, 1215.79 442.02 C 1213.44 440.29, 1212.57 439.59, 1211.38 438.37 C 1210.18 437.16, 1209.91 436.86, 1209.82 435.95 C 1209.73 435.03, 1210.05 434.67, 1210.92 433.80 C 1211.80 432.92, 1212.60 432.42, 1214.18 431.56 C 1215.76 430.71, 1216.88 430.18, 1218.82 429.54 C 1220.76 428.91, 1221.94 428.64, 1223.89 428.38 C 1225.85 428.11, 1226.91 428.26, 1228.60 428.23 C 1230.29 428.20, 1230.96 428.33, 1232.32 428.23 C 1233.68 428.12, 1234.52 428.40, 1235.40 427.72 C 1236.29 427.04, 1236.96 426.02, 1236.73 424.83" style="stroke: black; fill: black;"/><path d="M 1359.84,428.59 C 1358.90 429.12, 1358.53 429.72, 1357.96 431.37 C 1357.39 433.02, 1356.90 434.16, 1357.00 436.84 C 1357.09 439.52, 1357.66 441.39, 1358.43 444.76 C 1359.21 448.14, 1359.74 450.09, 1360.86 453.71 C 1361.98 457.34, 1362.54 459.38, 1364.03 462.87 C 1365.51 466.37, 1366.37 468.18, 1368.28 471.19 C 1370.19 474.21, 1371.14 475.78, 1373.57 477.93 C 1376.00 480.08, 1377.54 480.95, 1380.43 481.93 C 1383.33 482.92, 1385.03 483.12, 1388.06 482.85 C 1391.09 482.59, 1392.77 482.16, 1395.58 480.62 C 1398.39 479.08, 1399.80 477.73, 1402.10 475.16 C 1404.40 472.59, 1405.37 470.98, 1407.09 467.78 C 1408.80 464.58, 1409.45 462.69, 1410.66 459.18 C 1411.86 455.67, 1412.38 453.71, 1413.11 450.22 C 1413.83 446.74, 1414.10 444.86, 1414.29 441.74 C 1414.49 438.62, 1414.56 436.98, 1414.09 434.63 C 1413.61 432.27, 1413.02 431.01, 1411.91 429.97 C 1410.79 428.94, 1409.67 428.85, 1408.51 429.46 C 1407.36 430.06, 1406.44 430.93, 1406.13 432.99 C 1405.82 435.06, 1406.04 436.68, 1406.98 439.77 C 1407.92 442.86, 1409.16 444.77, 1410.82 448.44 C 1412.48 452.12, 1413.35 454.31, 1415.27 458.16 C 1417.20 462.01, 1418.21 464.10, 1420.44 467.71 C 1422.67 471.31, 1423.86 473.20, 1426.41 476.21 C 1428.97 479.21, 1430.32 480.72, 1433.21 482.73 C 1436.10 484.74, 1437.68 485.60, 1440.86 486.25 C 1444.04 486.91, 1445.92 487.02, 1449.09 486.02 C 1452.26 485.02, 1453.96 483.84, 1456.72 481.26 C 1459.47 478.69, 1460.65 476.93, 1462.87 473.14 C 1465.10 469.36, 1466.17 467.08, 1467.85 462.32 C 1469.53 457.56, 1470.19 454.73, 1471.26 449.35 C 1472.33 443.97, 1472.81 441.05, 1473.20 435.43 C 1473.59 429.81, 1473.53 426.75, 1473.20 421.24 C 1472.87 415.74, 1472.48 412.90, 1471.55 407.89 C 1470.63 402.88, 1469.90 400.40, 1468.58 396.19 C 1467.26 391.99, 1466.57 390.02, 1464.95 386.86 C 1463.32 383.69, 1462.49 382.18, 1460.44 380.38 C 1458.39 378.58, 1457.02 377.96, 1454.71 377.85 C 1452.40 377.73, 1450.80 378.07, 1448.91 379.80 C 1447.02 381.53, 1446.03 383.05, 1445.25 386.50 C 1444.47 389.96, 1444.80 392.30, 1445.00 397.09 C 1445.19 401.87, 1445.39 404.74, 1446.23 410.43 C 1447.07 416.12, 1447.67 419.42, 1449.20 425.54 C 1450.73 431.66, 1451.78 435.00, 1453.88 441.03 C 1455.99 447.06, 1457.16 450.17, 1459.75 455.69 C 1462.34 461.20, 1463.86 463.98, 1466.83 468.62 C 1469.80 473.26, 1471.38 475.42, 1474.62 478.89 C 1477.85 482.36, 1479.57 483.89, 1483.00 485.97 C 1486.44 488.05, 1488.34 488.86, 1491.81 489.29 C 1495.28 489.72, 1497.27 489.47, 1500.36 488.12 C 1503.45 486.76, 1504.96 485.40, 1507.26 482.51 C 1509.57 479.62, 1510.45 477.71, 1511.89 473.65 C 1513.33 469.59, 1513.79 467.16, 1514.46 462.23 C 1515.13 457.30, 1515.23 454.48, 1515.24 449.00 C 1515.25 443.53, 1515.03 440.57, 1514.51 434.87 C 1513.99 429.16, 1513.53 426.09, 1512.63 420.48 C 1511.72 414.86, 1511.09 411.99, 1509.99 406.80 C 1508.89 401.61, 1508.22 399.07, 1507.12 394.54 C 1506.02 390.01, 1505.39 387.77, 1504.50 384.13 C 1503.61 380.50, 1503.58 378.72, 1502.67 376.34 C 1501.75 373.97, 1501.07 373.08, 1499.92 372.26 C 1498.76 371.44, 1497.84 371.44, 1496.88 372.24 C 1495.92 373.04, 1495.04 373.94, 1495.10 376.25 C 1495.17 378.57, 1496.01 380.13, 1497.21 383.82 C 1498.42 387.51, 1499.45 389.85, 1501.12 394.71 C 1502.79 399.57, 1503.71 402.49, 1505.56 408.13 C 1507.42 413.77, 1508.39 416.95, 1510.40 422.94 C 1512.41 428.92, 1513.46 432.12, 1515.60 438.05 C 1517.73 443.97, 1518.90 447.08, 1521.08 452.56 C 1523.26 458.05, 1524.39 460.77, 1526.49 465.48 C 1528.59 470.18, 1529.64 472.30, 1531.59 476.11 C 1533.54 479.91, 1534.32 481.77, 1536.24 484.50 C 1538.16 487.23, 1539.31 488.36, 1541.19 489.77 C 1543.08 491.18, 1544.19 491.27, 1545.66 491.55 C 1547.12 491.82, 1547.85 491.60, 1548.51 491.15 C 1549.17 490.69, 1549.19 489.93, 1548.96 489.26 C 1548.74 488.59, 1548.19 488.56, 1547.38 487.79 C 1546.58 487.02, 1546.25 486.76, 1544.92 485.42 C 1543.59 484.08, 1542.63 483.40, 1540.75 481.09 C 1538.87 478.79, 1537.67 477.34, 1535.52 473.89 C 1533.37 470.43, 1532.24 468.36, 1530.01 463.83 C 1527.78 459.30, 1526.60 456.62, 1524.36 451.23 C 1522.13 445.84, 1520.94 442.76, 1518.82 436.88 C 1516.70 431.01, 1515.66 427.82, 1513.77 421.84 C 1511.88 415.86, 1510.94 412.67, 1509.35 406.98 C 1507.77 401.29, 1506.95 398.35, 1505.84 393.38 C 1504.73 388.41, 1504.54 385.89, 1503.81 382.11 C 1503.08 378.33, 1503.19 376.54, 1502.18 374.50 C 1501.16 372.46, 1499.88 372.10, 1498.73 371.90 C 1497.59 371.70, 1496.85 372.22, 1496.43 373.50 C 1496.02 374.77, 1496.04 375.84, 1496.66 378.27 C 1497.28 380.69, 1498.28 382.15, 1499.54 385.63 C 1500.80 389.11, 1501.62 391.27, 1502.94 395.67 C 1504.26 400.08, 1504.96 402.57, 1506.15 407.66 C 1507.34 412.74, 1507.98 415.58, 1508.88 421.09 C 1509.78 426.59, 1510.21 429.63, 1510.65 435.20 C 1511.09 440.77, 1511.23 443.68, 1511.07 448.94 C 1510.90 454.20, 1510.66 456.93, 1509.82 461.49 C 1508.99 466.05, 1508.31 468.28, 1506.88 471.73 C 1505.44 475.19, 1504.45 476.59, 1502.65 478.77 C 1500.84 480.94, 1499.91 481.62, 1497.85 482.60 C 1495.79 483.59, 1494.86 483.88, 1492.37 483.71 C 1489.88 483.54, 1488.36 483.29, 1485.41 481.74 C 1482.46 480.19, 1480.72 479.00, 1477.62 475.96 C 1474.53 472.93, 1472.89 470.93, 1469.94 466.57 C 1466.99 462.22, 1465.45 459.53, 1462.89 454.19 C 1460.34 448.86, 1459.17 445.80, 1457.15 439.90 C 1455.13 434.00, 1454.12 430.69, 1452.78 424.70 C 1451.44 418.70, 1450.94 415.44, 1450.45 409.93 C 1449.96 404.42, 1450.03 401.55, 1450.33 397.15 C 1450.63 392.75, 1451.38 390.72, 1451.93 387.93 C 1452.48 385.14, 1452.63 384.34, 1453.08 383.20 C 1453.54 382.05, 1453.53 381.95, 1454.19 382.19 C 1454.85 382.43, 1455.19 382.93, 1456.37 384.39 C 1457.55 385.86, 1458.51 386.86, 1460.08 389.53 C 1461.65 392.19, 1462.73 393.88, 1464.22 397.72 C 1465.70 401.55, 1466.49 403.93, 1467.51 408.69 C 1468.52 413.45, 1468.94 416.20, 1469.30 421.49 C 1469.65 426.78, 1469.71 429.74, 1469.29 435.14 C 1468.86 440.54, 1468.34 443.38, 1467.18 448.48 C 1466.02 453.59, 1465.27 456.31, 1463.51 460.68 C 1461.74 465.05, 1460.53 467.10, 1458.36 470.31 C 1456.19 473.53, 1454.91 474.83, 1452.67 476.75 C 1450.42 478.67, 1449.25 479.21, 1447.13 479.90 C 1445.02 480.59, 1444.20 480.64, 1442.09 480.22 C 1439.98 479.80, 1438.88 479.32, 1436.57 477.80 C 1434.26 476.27, 1432.87 475.16, 1430.54 472.59 C 1428.21 470.02, 1426.98 468.30, 1424.93 464.95 C 1422.87 461.60, 1421.87 459.59, 1420.28 455.84 C 1418.68 452.10, 1417.96 449.91, 1416.95 446.22 C 1415.94 442.54, 1416.00 440.34, 1415.22 437.41 C 1414.44 434.49, 1414.08 433.17, 1413.04 431.60 C 1412.00 430.04, 1411.13 429.72, 1410.05 429.60 C 1408.96 429.48, 1408.19 429.88, 1407.60 431.02 C 1407.02 432.16, 1407.16 433.20, 1407.11 435.29 C 1407.05 437.38, 1407.38 438.70, 1407.33 441.45 C 1407.28 444.20, 1407.37 445.92, 1406.86 449.06 C 1406.35 452.20, 1405.86 454.03, 1404.77 457.14 C 1403.68 460.25, 1402.97 461.96, 1401.42 464.62 C 1399.86 467.28, 1398.88 468.50, 1397.00 470.45 C 1395.12 472.41, 1393.96 473.22, 1392.02 474.39 C 1390.09 475.57, 1389.23 476.02, 1387.33 476.31 C 1385.44 476.60, 1384.42 476.50, 1382.55 475.83 C 1380.68 475.16, 1379.78 474.56, 1377.97 472.96 C 1376.16 471.35, 1375.15 470.29, 1373.48 467.80 C 1371.81 465.32, 1370.90 463.69, 1369.62 460.55 C 1368.34 457.40, 1367.82 455.47, 1367.09 452.07 C 1366.35 448.67, 1366.23 446.75, 1365.95 443.56 C 1365.66 440.36, 1366.00 438.56, 1365.66 436.10 C 1365.32 433.65, 1364.85 432.77, 1364.24 431.30 C 1363.64 429.83, 1363.52 429.28, 1362.64 428.73 C 1361.76 428.19, 1360.77 428.06, 1359.84 428.59" style="stroke: black; fill: black;"/><path d="M 1503.91,438.10 C 1504.81 438.90, 1505.77 439.06, 1507.85 439.22 C 1509.92 439.37, 1511.29 439.28, 1514.28 438.88 C 1517.26 438.48, 1519.20 437.80, 1522.77 437.22 C 1526.35 436.65, 1528.44 436.37, 1532.15 436.00 C 1535.86 435.63, 1537.85 435.47, 1541.32 435.37 C 1544.78 435.27, 1546.59 435.43, 1549.47 435.51 C 1552.36 435.59, 1553.43 435.61, 1555.74 435.77 C 1558.05 435.93, 1559.74 436.74, 1561.02 436.30 C 1562.29 435.85, 1562.92 434.83, 1562.12 433.56 C 1561.32 432.28, 1559.53 430.83, 1557.04 429.92 C 1554.55 429.02, 1552.87 429.15, 1549.67 429.04 C 1546.48 428.93, 1544.67 429.19, 1541.07 429.38 C 1537.48 429.57, 1535.48 429.76, 1531.68 429.98 C 1527.87 430.20, 1525.75 430.27, 1522.05 430.48 C 1518.35 430.68, 1516.24 430.55, 1513.18 431.00 C 1510.12 431.44, 1508.70 431.85, 1506.73 432.70 C 1504.77 433.54, 1503.92 434.14, 1503.36 435.22 C 1502.79 436.30, 1503.01 437.30, 1503.91 438.10" style="stroke: black; fill: black;"/><path d="M 1565.77,443.55 C 1564.95 444.35, 1564.78 445.18, 1564.60 446.92 C 1564.43 448.65, 1564.44 449.81, 1564.89 452.22 C 1565.34 454.64, 1565.88 456.25, 1566.85 458.99 C 1567.81 461.72, 1568.63 463.21, 1569.71 465.91 C 1570.79 468.61, 1571.20 470.15, 1572.25 472.47 C 1573.31 474.79, 1573.76 476.18, 1575.00 477.51 C 1576.23 478.83, 1577.18 479.19, 1578.44 479.11 C 1579.69 479.02, 1580.57 478.45, 1581.27 477.07 C 1581.98 475.69, 1582.22 474.46, 1581.95 472.22 C 1581.69 469.99, 1580.95 468.53, 1579.95 465.90 C 1578.95 463.27, 1577.93 461.87, 1576.95 459.08 C 1575.98 456.29, 1575.58 454.70, 1575.08 451.96 C 1574.57 449.22, 1574.44 447.82, 1574.42 445.39 C 1574.40 442.96, 1574.40 441.84, 1574.96 439.81 C 1575.53 437.78, 1576.10 436.80, 1577.26 435.24 C 1578.43 433.68, 1579.05 433.06, 1580.79 432.01 C 1582.52 430.96, 1583.53 430.59, 1585.94 429.98 C 1588.35 429.37, 1589.76 429.09, 1592.83 428.98 C 1595.91 428.87, 1597.73 428.94, 1601.32 429.43 C 1604.90 429.92, 1606.95 430.40, 1610.75 431.43 C 1614.55 432.46, 1616.62 433.15, 1620.32 434.58 C 1624.02 436.00, 1625.90 436.87, 1629.26 438.56 C 1632.61 440.24, 1634.23 441.21, 1637.10 443.00 C 1639.97 444.79, 1641.20 445.92, 1643.61 447.50 C 1646.02 449.09, 1647.19 450.06, 1649.15 450.91 C 1651.10 451.76, 1652.06 451.98, 1653.38 451.74 C 1654.70 451.50, 1655.22 450.91, 1655.75 449.72 C 1656.28 448.53, 1656.64 447.53, 1656.04 445.78 C 1655.44 444.04, 1654.67 442.74, 1652.75 440.99 C 1650.84 439.23, 1649.19 438.50, 1646.46 437.01 C 1643.74 435.51, 1642.12 434.75, 1639.12 433.51 C 1636.13 432.27, 1634.51 431.50, 1631.49 430.81 C 1628.47 430.11, 1626.86 429.92, 1624.02 430.02 C 1621.17 430.11, 1619.69 430.33, 1617.28 431.30 C 1614.87 432.27, 1613.63 432.98, 1611.95 434.87 C 1610.27 436.75, 1609.48 438.11, 1608.87 440.71 C 1608.26 443.30, 1608.26 444.96, 1608.90 447.85 C 1609.54 450.74, 1610.23 452.42, 1612.09 455.16 C 1613.95 457.90, 1615.38 459.25, 1618.19 461.54 C 1621.00 463.84, 1622.76 464.91, 1626.14 466.61 C 1629.51 468.31, 1631.39 469.07, 1635.07 470.04 C 1638.74 471.01, 1640.81 471.27, 1644.52 471.45 C 1648.23 471.64, 1650.13 471.54, 1653.61 470.97 C 1657.10 470.40, 1658.87 469.86, 1661.96 468.60 C 1665.05 467.33, 1666.63 466.49, 1669.06 464.63 C 1671.48 462.77, 1672.48 461.51, 1674.10 459.29 C 1675.72 457.08, 1676.31 455.77, 1677.14 453.55 C 1677.97 451.34, 1678.41 449.93, 1678.26 448.22 C 1678.12 446.50, 1677.41 445.54, 1676.40 444.98 C 1675.40 444.42, 1674.17 444.60, 1673.25 445.42 C 1672.33 446.24, 1671.79 447.21, 1671.82 449.08 C 1671.85 450.96, 1672.17 452.38, 1673.40 454.79 C 1674.63 457.20, 1675.99 458.52, 1677.98 461.13 C 1679.97 463.73, 1681.13 465.17, 1683.35 467.80 C 1685.58 470.43, 1686.77 471.78, 1689.11 474.27 C 1691.44 476.77, 1692.67 478.07, 1695.03 480.29 C 1697.38 482.51, 1698.63 483.80, 1700.88 485.37 C 1703.13 486.95, 1704.39 487.51, 1706.26 488.17 C 1708.12 488.82, 1709.17 488.94, 1710.19 488.64 C 1711.21 488.35, 1711.52 487.68, 1711.34 486.69 C 1711.17 485.69, 1710.51 485.09, 1709.32 483.66 C 1708.12 482.24, 1707.33 481.26, 1705.37 479.58 C 1703.42 477.89, 1701.83 477.20, 1699.53 475.25 C 1697.23 473.31, 1696.02 472.18, 1693.86 469.85 C 1691.71 467.52, 1690.59 466.20, 1688.76 463.60 C 1686.94 461.01, 1686.05 459.50, 1684.73 456.86 C 1683.40 454.22, 1683.21 452.55, 1682.15 450.40 C 1681.08 448.24, 1680.61 447.29, 1679.42 446.08 C 1678.24 444.88, 1677.51 444.58, 1676.23 444.37 C 1674.95 444.17, 1674.00 444.44, 1673.03 445.05 C 1672.05 445.66, 1671.81 446.21, 1671.34 447.44 C 1670.86 448.67, 1671.18 449.62, 1670.64 451.19 C 1670.10 452.75, 1669.79 453.68, 1668.62 455.27 C 1667.45 456.85, 1666.64 457.64, 1664.78 459.10 C 1662.92 460.56, 1661.77 461.40, 1659.32 462.56 C 1656.86 463.71, 1655.42 464.29, 1652.51 464.87 C 1649.61 465.46, 1647.97 465.59, 1644.80 465.46 C 1641.62 465.33, 1639.78 465.12, 1636.63 464.24 C 1633.48 463.37, 1631.85 462.65, 1629.06 461.09 C 1626.27 459.52, 1624.79 458.45, 1622.67 456.43 C 1620.55 454.41, 1619.76 453.09, 1618.45 450.99 C 1617.15 448.89, 1616.73 447.78, 1616.13 445.95 C 1615.53 444.12, 1615.38 443.25, 1615.47 441.85 C 1615.55 440.46, 1615.77 439.86, 1616.56 438.96 C 1617.35 438.06, 1617.93 437.76, 1619.41 437.36 C 1620.89 436.97, 1621.91 436.84, 1623.96 436.98 C 1626.00 437.12, 1627.23 437.38, 1629.63 438.07 C 1632.03 438.75, 1633.52 439.17, 1635.94 440.42 C 1638.35 441.68, 1639.61 442.72, 1641.73 444.35 C 1643.85 445.98, 1644.72 447.28, 1646.55 448.58 C 1648.38 449.88, 1649.37 450.48, 1650.88 450.87 C 1652.39 451.26, 1653.22 451.04, 1654.08 450.53 C 1654.94 450.01, 1655.46 449.38, 1655.18 448.30 C 1654.90 447.22, 1654.27 446.46, 1652.67 445.14 C 1651.07 443.81, 1649.70 443.12, 1647.17 441.68 C 1644.63 440.24, 1643.08 439.52, 1639.97 437.92 C 1636.86 436.33, 1635.16 435.35, 1631.61 433.69 C 1628.06 432.03, 1626.10 431.14, 1622.23 429.64 C 1618.36 428.13, 1616.24 427.38, 1612.25 426.18 C 1608.26 424.98, 1606.16 424.38, 1602.27 423.64 C 1598.39 422.90, 1596.45 422.59, 1592.85 422.47 C 1589.24 422.34, 1587.39 422.26, 1584.24 423.01 C 1581.09 423.76, 1579.58 424.58, 1577.10 426.21 C 1574.62 427.85, 1573.58 428.85, 1571.84 431.17 C 1570.09 433.49, 1569.28 434.98, 1568.38 437.81 C 1567.47 440.64, 1567.39 442.26, 1567.32 445.32 C 1567.25 448.38, 1567.57 449.96, 1568.01 453.10 C 1568.46 456.25, 1568.96 457.89, 1569.55 461.03 C 1570.14 464.17, 1570.21 465.97, 1570.97 468.80 C 1571.73 471.63, 1572.18 473.26, 1573.35 475.18 C 1574.51 477.10, 1575.49 477.81, 1576.78 478.40 C 1578.06 479.00, 1578.95 478.81, 1579.78 478.13 C 1580.60 477.45, 1580.93 476.69, 1580.89 475.00 C 1580.85 473.32, 1580.29 472.07, 1579.57 469.70 C 1578.85 467.34, 1578.18 465.85, 1577.30 463.15 C 1576.43 460.46, 1576.01 458.89, 1575.20 456.23 C 1574.38 453.58, 1574.07 452.05, 1573.23 449.88 C 1572.40 447.71, 1571.93 446.78, 1571.02 445.40 C 1570.11 444.01, 1569.72 443.33, 1568.67 442.96 C 1567.62 442.59, 1566.58 442.76, 1565.77 443.55" style="stroke: black; fill: black;"/></svg>